<?xml version="1.0" encoding="UTF-8"?>
<svg version="1.1" xmlns="http://www.w3.org/2000/svg" width="50" height="50">
<path d="M0 0 C1.07507813 -0.00128906 2.15015625 -0.00257812 3.2578125 -0.00390625 C4.38960937 -0.00003906 5.52140625 0.00382812 6.6875 0.0078125 C7.81929687 0.00394531 8.95109375 0.00007813 10.1171875 -0.00390625 C11.19226563 -0.00261719 12.26734375 -0.00132813 13.375 0 C14.86580078 0.00169189 14.86580078 0.00169189 16.38671875 0.00341797 C18.6875 0.1328125 18.6875 0.1328125 19.6875 1.1328125 C19.78563987 2.57021603 19.8154828 4.01237577 19.81689453 5.453125 C19.82004669 6.37077637 19.82319885 7.28842773 19.82644653 8.23388672 C19.8244223 9.23178223 19.82239807 10.22967773 19.8203125 11.2578125 C19.82174759 12.78365967 19.82174759 12.78365967 19.82321167 14.34033203 C19.82389361 16.49576886 19.82203835 18.65120772 19.81787109 20.80664062 C19.81252305 24.11853621 19.81781563 27.43029617 19.82421875 30.7421875 C19.82355797 32.83072947 19.82227681 34.91927135 19.8203125 37.0078125 C19.82233673 38.00570801 19.82436096 39.00360352 19.82644653 40.03173828 C19.82329437 40.94938965 19.82014221 41.86704102 19.81689453 42.8125 C19.81609894 43.62444824 19.81530334 44.43639648 19.81448364 45.27294922 C19.6875 47.1328125 19.6875 47.1328125 18.6875 48.1328125 C16.91890807 48.23227703 15.14638549 48.26361467 13.375 48.265625 C12.29992187 48.26691406 11.22484375 48.26820312 10.1171875 48.26953125 C8.98539063 48.26566406 7.85359375 48.26179688 6.6875 48.2578125 C5.55570313 48.26167969 4.42390625 48.26554687 3.2578125 48.26953125 C2.18273437 48.26824219 1.10765625 48.26695313 0 48.265625 C-0.99386719 48.26449707 -1.98773438 48.26336914 -3.01171875 48.26220703 C-5.3125 48.1328125 -5.3125 48.1328125 -6.3125 47.1328125 C-6.41063987 45.69540897 -6.4404828 44.25324923 -6.44189453 42.8125 C-6.44504669 41.89484863 -6.44819885 40.97719727 -6.45144653 40.03173828 C-6.4494223 39.03384277 -6.44739807 38.03594727 -6.4453125 37.0078125 C-6.44626923 35.99058105 -6.44722595 34.97334961 -6.44821167 33.92529297 C-6.44889361 31.76985614 -6.44703835 29.61441728 -6.44287109 27.45898438 C-6.43752305 24.14708879 -6.44281563 20.83532883 -6.44921875 17.5234375 C-6.44855797 15.43489553 -6.44727681 13.34635365 -6.4453125 11.2578125 C-6.44733673 10.25991699 -6.44936096 9.26202148 -6.45144653 8.23388672 C-6.44829437 7.31623535 -6.44514221 6.39858398 -6.44189453 5.453125 C-6.44109894 4.64117676 -6.44030334 3.82922852 -6.43948364 2.99267578 C-6.16967061 -0.95913513 -3.31876894 0.00376644 0 0 Z M4.6875 3.1328125 C4.6875 4.1228125 4.6875 5.1128125 4.6875 6.1328125 C6.3375 5.8028125 7.9875 5.4728125 9.6875 5.1328125 C9.3575 4.4728125 9.0275 3.8128125 8.6875 3.1328125 C7.3675 3.1328125 6.0475 3.1328125 4.6875 3.1328125 Z " fill="#000000" transform="translate(18.3125,0.8671875)"/>
</svg>
