<?xml version="1.0" encoding="UTF-8"?>
<svg version="1.1" xmlns="http://www.w3.org/2000/svg" width="24" height="24">
<path d="M0 0 C0.66 0.99 1.32 1.98 2 3 C1.79375 3.804375 1.5875 4.60875 1.375 5.4375 C0.68681571 8.11833542 0.68681571 8.11833542 2.625 10.375 C4.88166458 12.31318429 4.88166458 12.31318429 7.5625 11.625 C8.366875 11.41875 9.17125 11.2125 10 11 C10.99 11.66 11.98 12.32 13 13 C12.67 15.31 12.34 17.62 12 20 C6.962727 20.62965912 3.97190088 19.37839446 -0.09765625 16.62109375 C-4.33044832 13.01409435 -6.81711571 9.04830403 -7.3125 3.5 C-7.209375 2.675 -7.10625 1.85 -7 1 C-4.46578263 -0.26710868 -2.80561762 -0.28056176 0 0 Z " fill="#000000" transform="translate(9,2)"/>
</svg>
