<?xml version="1.0" encoding="UTF-8"?>
<svg version="1.1" xmlns="http://www.w3.org/2000/svg" width="24" height="24">
<path d="M0 0 C5.94 0 11.88 0 18 0 C18 5.94 18 11.88 18 18 C12.06 18 6.12 18 0 18 C0 12.06 0 6.12 0 0 Z M9 5 C9 7.31 9 9.62 9 12 C8.34 12 7.68 12 7 12 C6.67 11.01 6.34 10.02 6 9 C6 10.32 6 11.64 6 13 C7.32 13 8.64 13 10 13 C10.185625 11.7934375 10.185625 11.7934375 10.375 10.5625 C10.58125 9.716875 10.7875 8.87125 11 8 C11.66 7.67 12.32 7.34 13 7 C12.34 7 11.68 7 11 7 C11 6.34 11 5.68 11 5 C10.34 5 9.68 5 9 5 Z " fill="#FCC419" transform="translate(3,3)"/>
</svg>
