<?xml version="1.0" encoding="UTF-8"?>
<svg version="1.1" xmlns="http://www.w3.org/2000/svg" width="24" height="24">
<path d="M0 0 C2.97 0.33 5.94 0.66 9 1 C9 2.32 9 3.64 9 5 C4.545 5.495 4.545 5.495 0 6 C0 4.02 0 2.04 0 0 Z " fill="#000000" transform="translate(13,9)"/>
<path d="M0 0 C0 1.98 0 3.96 0 6 C-2.97 5.67 -5.94 5.34 -9 5 C-9 3.68 -9 2.36 -9 1 C-5.8035914 -0.06546953 -3.34252724 -0.07427838 0 0 Z " fill="#000000" transform="translate(11,9)"/>
<path d="M0 0 C2.97 0.33 5.94 0.66 9 1 C9 2.98 9 4.96 9 7 C4.71193127 6.52354792 2.73352513 5.34097516 0 2 C0 1.34 0 0.68 0 0 Z " fill="#000000" transform="translate(2,15)"/>
<path d="M0 0 C4.28806873 0.47645208 6.26647487 1.65902484 9 5 C9 5.66 9 6.32 9 7 C6.03 6.67 3.06 6.34 0 6 C0 4.02 0 2.04 0 0 Z " fill="#000000" transform="translate(13,2)"/>
<path d="M0 0 C0 1.98 0 3.96 0 6 C-4.455 6.495 -4.455 6.495 -9 7 C-7.20098245 1.74133331 -5.88456942 0 0 0 Z " fill="#000000" transform="translate(11,2)"/>
<path d="M0 0 C2.97 0.495 2.97 0.495 6 1 C6 2.65 6 4.3 6 6 C4.35 6 2.7 6 1 6 C0.67 4.02 0.34 2.04 0 0 Z " fill="#000000" transform="translate(18,18)"/>
<path d="M0 0 C1.32 0 2.64 0 4 0 C4 1.98 4 3.96 4 6 C2.68 6 1.36 6 0 6 C0 4.02 0 2.04 0 0 Z " fill="#000000" transform="translate(13,16)"/>
</svg>
