<?xml version="1.0" encoding="UTF-8"?>
<svg version="1.1" xmlns="http://www.w3.org/2000/svg" width="24" height="24">
<path d="M0 0 C1.85625 -0.00773438 1.85625 -0.00773438 3.75 -0.015625 C7 0.25 7 0.25 10 2.25 C10.1875 4.625 10.1875 4.625 10 7.25 C10 8.57 10 9.89 10 11.25 C10 13.56 10 15.87 10 18.25 C3.4 18.25 -3.2 18.25 -10 18.25 C-10 14.58333333 -10 10.91666667 -10 7.25 C-10.061875 6.38375 -10.12375 5.5175 -10.1875 4.625 C-10.125625 3.84125 -10.06375 3.0575 -10 2.25 C-6.32077133 -0.20281911 -4.37740649 -0.01823919 0 0 Z " fill="#000000" transform="translate(12,2.75)"/>
</svg>
