<?xml version="1.0" encoding="UTF-8"?>
<svg version="1.1" xmlns="http://www.w3.org/2000/svg" width="50" height="50">
<path d="M0 0 C4.88949139 2.270121 7.76263748 5.09501294 10 10 C12.23197695 25.2483659 4.62973847 36.34327266 -4 48 C-6.21484375 47.90234375 -6.21484375 47.90234375 -9 47 C-10.76909861 44.85500523 -12.15088336 42.92275244 -13.5625 40.5625 C-13.95236084 39.92578369 -14.34222168 39.28906738 -14.74389648 38.63305664 C-20.39732548 29.2083001 -23.46984264 21.23379731 -22 10 C-17.59387836 0.34042564 -9.81466679 -1.32120515 0 0 Z M-11 14 C-11.33333333 17 -11.33333333 17 -11 20 C-9.11499729 22.31563087 -9.11499729 22.31563087 -6 22.25 C-2.88500271 22.31563087 -2.88500271 22.31563087 -1 20 C-0.66666667 17 -0.66666667 17 -1 14 C-2.88500271 11.68436913 -2.88500271 11.68436913 -6 11.75 C-9.11499729 11.68436913 -9.11499729 11.68436913 -11 14 Z " fill="#000000" transform="translate(31,1)"/>
</svg>
