<?xml version="1.0" encoding="UTF-8"?>
<svg version="1.1" xmlns="http://www.w3.org/2000/svg" width="24" height="24">
<path d="M0 0 C1.8871875 0.00773438 1.8871875 0.00773438 3.8125 0.015625 C5.070625 0.01046875 6.32875 0.0053125 7.625 0 C10.8125 0.265625 10.8125 0.265625 12.8125 2.265625 C13.078125 5.453125 13.078125 5.453125 13.0625 9.265625 C13.06765625 10.52375 13.0728125 11.781875 13.078125 13.078125 C12.8125 16.265625 12.8125 16.265625 10.8125 18.265625 C7.625 18.53125 7.625 18.53125 3.8125 18.515625 C2.554375 18.52078125 1.29625 18.5259375 0 18.53125 C-3.1875 18.265625 -3.1875 18.265625 -5.1875 16.265625 C-5.453125 13.078125 -5.453125 13.078125 -5.4375 9.265625 C-5.44265625 8.0075 -5.4478125 6.749375 -5.453125 5.453125 C-5.08918713 1.08587052 -4.36725448 0.36393787 0 0 Z M-0.1875 6.265625 C-0.35416667 9.265625 -0.35416667 9.265625 -0.1875 12.265625 C0.93086224 13.60967275 0.93086224 13.60967275 3.8125 13.390625 C6.69413776 13.60967275 6.69413776 13.60967275 7.8125 12.265625 C7.97916667 9.265625 7.97916667 9.265625 7.8125 6.265625 C6.69413776 4.92157725 6.69413776 4.92157725 3.8125 5.140625 C0.93086224 4.92157725 0.93086224 4.92157725 -0.1875 6.265625 Z " fill="#FBC318" transform="translate(8.1875,2.734375)"/>
<path d="M0 0 C1.98 0 3.96 0 6 0 C6 1.98 6 3.96 6 6 C4.02 6 2.04 6 0 6 C0 4.02 0 2.04 0 0 Z " fill="#FBC51A" transform="translate(9,9)"/>
</svg>
