<?xml version="1.0" encoding="UTF-8"?>
<svg version="1.1" xmlns="http://www.w3.org/2000/svg" width="24" height="24">
<path d="M0 0 C1.8871875 0.00773438 1.8871875 0.00773438 3.8125 0.015625 C5.070625 0.01046875 6.32875 0.0053125 7.625 0 C10.8125 0.265625 10.8125 0.265625 12.8125 2.265625 C13.078125 5.453125 13.078125 5.453125 13.0625 9.265625 C13.06765625 10.52375 13.0728125 11.781875 13.078125 13.078125 C12.8125 16.265625 12.8125 16.265625 10.8125 18.265625 C7.6875 18.390625 7.6875 18.390625 4.8125 18.265625 C4.8125 15.955625 4.8125 13.645625 4.8125 11.265625 C5.4725 11.265625 6.1325 11.265625 6.8125 11.265625 C6.8125 10.605625 6.8125 9.945625 6.8125 9.265625 C6.1525 9.265625 5.4925 9.265625 4.8125 9.265625 C4.8125 8.605625 4.8125 7.945625 4.8125 7.265625 C2.58633854 9.49178646 2.80059556 11.96798683 2.75 14.953125 C2.770625 16.04625 2.79125 17.139375 2.8125 18.265625 C-0.0625 18.390625 -0.0625 18.390625 -3.1875 18.265625 C-5.1875 16.265625 -5.1875 16.265625 -5.453125 13.078125 C-5.44796875 11.82 -5.4428125 10.561875 -5.4375 9.265625 C-5.44265625 8.0075 -5.4478125 6.749375 -5.453125 5.453125 C-5.08918713 1.08587052 -4.36725448 0.36393787 0 0 Z " fill="#FBC318" transform="translate(8.1875,2.734375)"/>
</svg>
