<svg xmlns="http://www.w3.org/2000/svg" xmlns:xlink="http://www.w3.org/1999/xlink" width="147" zoomAndPan="magnify" viewBox="0 0 110.25 120.750001" height="161" preserveAspectRatio="xMidYMid meet" version="1.0"><defs><clipPath id="d75e7a3f6b"><path d="M 3 2.234375 L 105.917969 2.234375 L 105.917969 117.675781 L 3 117.675781 Z M 3 2.234375 " clip-rule="nonzero"/></clipPath><clipPath id="ed88cece3a"><path d="M 61.050781 4.019531 L 99.480469 26.378906 C 103.464844 28.699219 105.917969 32.964844 105.917969 37.574219 L 105.917969 82.378906 C 105.917969 86.992188 103.464844 91.253906 99.480469 93.574219 L 61.050781 115.933594 C 57.070312 118.25 52.152344 118.25 48.171875 115.933594 L 9.742188 93.574219 C 5.753906 91.253906 3.304688 86.992188 3.304688 82.378906 L 3.304688 37.574219 C 3.304688 32.964844 5.753906 28.699219 9.742188 26.378906 L 48.171875 4.019531 C 52.152344 1.707031 57.070312 1.707031 61.050781 4.019531 Z M 61.050781 4.019531 " clip-rule="nonzero"/></clipPath><clipPath id="f9df9424ce"><path d="M 3.304688 2.148438 L 105.90625 2.148438 L 105.90625 117.8125 L 3.304688 117.8125 Z M 3.304688 2.148438 " clip-rule="nonzero"/></clipPath><clipPath id="eb9255c239"><path d="M 61.042969 4.03125 L 99.46875 26.386719 C 103.453125 28.707031 105.90625 32.96875 105.90625 37.582031 L 105.90625 82.378906 C 105.90625 86.992188 103.453125 91.253906 99.46875 93.574219 L 61.042969 115.929688 C 57.0625 118.246094 52.144531 118.246094 48.167969 115.929688 L 9.742188 93.574219 C 5.753906 91.253906 3.304688 86.992188 3.304688 82.378906 L 3.304688 37.582031 C 3.304688 32.96875 5.753906 28.707031 9.742188 26.386719 L 48.167969 4.03125 C 52.144531 1.714844 57.0625 1.714844 61.042969 4.03125 Z M 61.042969 4.03125 " clip-rule="nonzero"/></clipPath><clipPath id="f73691bc17"><path d="M 70 31 L 99 31 L 99 43 L 70 43 Z M 70 31 " clip-rule="nonzero"/></clipPath><clipPath id="952bdd579e"><path d="M 53.785156 0.285156 L 108.917969 38.433594 L 55.085938 116.230469 L -0.046875 78.082031 Z M 53.785156 0.285156 " clip-rule="nonzero"/></clipPath><clipPath id="1396fe3702"><path d="M 53.785156 0.285156 L 108.917969 38.433594 L 55.085938 116.230469 L -0.046875 78.082031 Z M 53.785156 0.285156 " clip-rule="nonzero"/></clipPath><clipPath id="c8a3d0a4cc"><path d="M 40 28 L 85 28 L 85 65 L 40 65 Z M 40 28 " clip-rule="nonzero"/></clipPath><clipPath id="4a02db80ce"><path d="M 53.785156 0.285156 L 108.917969 38.433594 L 55.085938 116.230469 L -0.046875 78.082031 Z M 53.785156 0.285156 " clip-rule="nonzero"/></clipPath><clipPath id="e6b3a1a2a2"><path d="M 53.785156 0.285156 L 108.917969 38.433594 L 55.085938 116.230469 L -0.046875 78.082031 Z M 53.785156 0.285156 " clip-rule="nonzero"/></clipPath><clipPath id="e454c01cb7"><path d="M 21 40 L 81 40 L 81 86 L 21 86 Z M 21 40 " clip-rule="nonzero"/></clipPath><clipPath id="1c1aa77b9d"><path d="M 53.785156 0.285156 L 108.917969 38.433594 L 55.085938 116.230469 L -0.046875 78.082031 Z M 53.785156 0.285156 " clip-rule="nonzero"/></clipPath><clipPath id="e6e03feb84"><path d="M 53.785156 0.285156 L 108.917969 38.433594 L 55.085938 116.230469 L -0.046875 78.082031 Z M 53.785156 0.285156 " clip-rule="nonzero"/></clipPath><clipPath id="b3da69e4b7"><path d="M 20 61 L 63 61 L 63 98 L 20 98 Z M 20 61 " clip-rule="nonzero"/></clipPath><clipPath id="31fb54378c"><path d="M 53.785156 0.285156 L 108.917969 38.433594 L 55.085938 116.230469 L -0.046875 78.082031 Z M 53.785156 0.285156 " clip-rule="nonzero"/></clipPath><clipPath id="bd4bba7356"><path d="M 53.785156 0.285156 L 108.917969 38.433594 L 55.085938 116.230469 L -0.046875 78.082031 Z M 53.785156 0.285156 " clip-rule="nonzero"/></clipPath><clipPath id="e8b854ffb6"><path d="M 59 7 L 70 7 L 70 37 L 59 37 Z M 59 7 " clip-rule="nonzero"/></clipPath><clipPath id="21b4dd9fda"><path d="M 53.785156 0.285156 L 108.917969 38.433594 L 55.085938 116.230469 L -0.046875 78.082031 Z M 53.785156 0.285156 " clip-rule="nonzero"/></clipPath><clipPath id="17f30ac0f2"><path d="M 53.785156 0.285156 L 108.917969 38.433594 L 55.085938 116.230469 L -0.046875 78.082031 Z M 53.785156 0.285156 " clip-rule="nonzero"/></clipPath></defs><g clip-path="url(#d75e7a3f6b)"><g clip-path="url(#ed88cece3a)"><path fill="#000000" d="M 3.304688 119.679688 L 3.304688 0.230469 L 105.917969 0.230469 L 105.917969 119.679688 Z M 3.304688 119.679688 " fill-opacity="1" fill-rule="nonzero"/></g></g><g clip-path="url(#f9df9424ce)"><g clip-path="url(#eb9255c239)"><path stroke-linecap="butt" transform="matrix(0, -0.744932, 0.744932, 0, 3.30331, 119.677073)" fill="none" stroke-linejoin="miter" d="M 155.243379 77.509931 L 125.233315 129.092841 C 122.118519 134.441481 116.397572 137.734565 110.204687 137.734565 L 50.069196 137.734565 C 43.876311 137.734565 38.155364 134.441481 35.040568 129.092841 L 5.030504 77.509931 C 1.920952 72.166535 1.920952 65.564635 5.030504 60.226483 L 35.040568 8.643573 C 38.155364 3.289689 43.876311 0.00184906 50.069196 0.00184906 L 110.204687 0.00184906 C 116.397572 0.00184906 122.118519 3.289689 125.233315 8.643573 L 155.243379 60.226483 C 158.352931 65.564635 158.352931 72.166535 155.243379 77.509931 Z M 155.243379 77.509931 " stroke="#000000" stroke-width="132" stroke-opacity="1" stroke-miterlimit="4"/></g></g><g clip-path="url(#f73691bc17)"><g clip-path="url(#952bdd579e)"><g clip-path="url(#1396fe3702)"><path fill="#ffffff" d="M 70.175781 38.53125 C 76.203125 33.351562 85.613281 30.894531 98.351562 31.125 L 98.886719 36.53125 C 87.851562 36.757812 80.03125 38.632812 75.441406 42.175781 Z M 70.175781 38.53125 " fill-opacity="1" fill-rule="evenodd"/></g></g></g><g clip-path="url(#c8a3d0a4cc)"><g clip-path="url(#4a02db80ce)"><g clip-path="url(#e6b3a1a2a2)"><path fill="#ffffff" d="M 53.113281 30.160156 L 57.292969 33.050781 L 59.589844 34.640625 L 81.449219 49.765625 C 85.007812 52.230469 85.925781 57.136719 83.460938 60.699219 C 80.996094 64.261719 76.0625 65.160156 72.5 62.695312 L 50.644531 47.570312 L 48.347656 45.980469 L 44.164062 43.085938 C 40.605469 40.625 39.707031 35.691406 42.171875 32.128906 C 44.632812 28.566406 49.550781 27.695312 53.113281 30.160156 Z M 53.113281 30.160156 " fill-opacity="1" fill-rule="evenodd"/></g></g></g><g clip-path="url(#e454c01cb7)"><g clip-path="url(#1c1aa77b9d)"><g clip-path="url(#e6e03feb84)"><path fill="#ffffff" d="M 34.316406 42.265625 L 38.472656 45.140625 L 40.792969 46.746094 L 76.742188 71.621094 C 80.304688 74.085938 81.203125 79.019531 78.738281 82.582031 C 76.273438 86.140625 71.339844 87.039062 67.777344 84.574219 L 31.828125 59.703125 L 29.507812 58.09375 L 25.351562 55.21875 C 21.792969 52.753906 20.894531 47.820312 23.355469 44.261719 C 25.820312 40.699219 30.753906 39.800781 34.316406 42.265625 Z M 34.316406 42.265625 " fill-opacity="1" fill-rule="evenodd"/></g></g></g><g clip-path="url(#b3da69e4b7)"><g clip-path="url(#31fb54378c)"><g clip-path="url(#bd4bba7356)"><path fill="#ffffff" d="M 24.074219 61.699219 C 20.828125 62.695312 19.589844 64.816406 20.300781 67.980469 C 21.238281 70.539062 22.058594 72.441406 22.824219 73.65625 C 27.074219 81.023438 28.679688 88.851562 27.691406 97.175781 C 35.132812 93.316406 43.023438 92.0625 51.417969 93.441406 C 52.820312 93.726562 54.890625 93.824219 57.617188 93.800781 C 60.828125 93.351562 62.375 91.445312 62.164062 88.058594 C 62.214844 87.214844 61.292969 86.117188 59.355469 84.777344 C 54.144531 81.171875 48.867188 77.710938 43.65625 74.105469 C 38.441406 70.496094 33.34375 66.777344 28.132812 63.171875 C 26.195312 61.832031 24.847656 61.355469 24.074219 61.699219 Z M 24.074219 61.699219 " fill-opacity="1" fill-rule="evenodd"/></g></g></g><g clip-path="url(#e8b854ffb6)"><g clip-path="url(#21b4dd9fda)"><g clip-path="url(#17f30ac0f2)"><path fill="#ffffff" d="M 67.597656 36.746094 C 70.320312 29.28125 69.304688 19.609375 64.597656 7.765625 L 59.351562 9.171875 C 63.027344 19.578125 64.03125 27.5625 62.332031 33.105469 Z M 67.597656 36.746094 " fill-opacity="1" fill-rule="evenodd"/></g></g></g></svg>