<?xml version="1.0" encoding="UTF-8"?>
<svg version="1.1" xmlns="http://www.w3.org/2000/svg" width="500" height="500">
<path d="M0 0 C8.7577779 3.74386513 16.9199189 8.78472585 25.0625 13.6875 C27.43108165 15.10879687 29.80112564 16.52763474 32.171875 17.9453125 C32.7539119 18.29378738 33.33594879 18.64226227 33.93562317 19.001297 C37.51580412 21.13754922 41.12364516 23.21330444 44.765625 25.2421875 C45.62663818 25.72469971 46.48765137 26.20721191 47.37475586 26.7043457 C48.93962367 27.57618943 50.5103409 28.43766154 52.08813477 29.28588867 C57.88465961 32.53245018 62.84443797 36.53331392 65 43 C65.10478899 45.2218931 65.14867144 47.44681473 65.16113281 49.67114258 C65.16609772 50.34469284 65.17106262 51.0182431 65.17617798 51.71220398 C65.19077789 53.93965682 65.19759834 56.16703842 65.203125 58.39453125 C65.20887874 59.94528708 65.21463644 61.4960429 65.22039795 63.04679871 C65.2309021 66.29918753 65.23674843 69.55155168 65.24023438 72.80395508 C65.24571449 76.96346309 65.26973442 81.122643 65.29820633 85.28204823 C65.31686789 88.48631226 65.3220402 91.69049785 65.32357025 94.89481163 C65.32658994 96.42775959 65.33459538 97.9607064 65.34775543 99.49360085 C65.36488838 101.64287595 65.36291844 103.79135737 65.35644531 105.94067383 C65.36191376 107.77242912 65.36191376 107.77242912 65.36749268 109.64118958 C64.6750593 115.9698938 61.79611596 119.69979313 57.02148438 123.54394531 C53.43330084 126.12847751 49.62269769 128.25012075 45.75 130.375 C39.40931721 133.91832273 33.10250882 137.50508428 26.8671875 141.23046875 C26.26531616 141.58977478 25.66344482 141.94908081 25.04333496 142.3192749 C22.64996175 143.74956706 20.25750224 145.18128776 17.86950684 146.62054443 C-0.43830148 157.65140542 -0.43830148 157.65140542 -8 156 C-18.62360931 151.8467371 -28.41204988 145.33439958 -38.15625 139.484375 C-42.1092551 137.11310541 -46.08749973 134.7957508 -50.09375 132.515625 C-51.08310547 131.94730957 -52.07246094 131.37899414 -53.09179688 130.79345703 C-54.97793614 129.71136538 -56.86959036 128.63880878 -58.76757812 127.57763672 C-65.01705059 123.96487989 -70.63769009 120.08692974 -73 113 C-73.10478899 110.7781069 -73.14867144 108.55318527 -73.16113281 106.32885742 C-73.16609772 105.65530716 -73.17106262 104.9817569 -73.17617798 104.28779602 C-73.19077789 102.06034318 -73.19759834 99.83296158 -73.203125 97.60546875 C-73.20887874 96.05471292 -73.21463644 94.5039571 -73.22039795 92.95320129 C-73.2309021 89.70081247 -73.23674843 86.44844832 -73.24023438 83.19604492 C-73.24571449 79.03653691 -73.26973442 74.877357 -73.29820633 70.71795177 C-73.31686789 67.51368774 -73.3220402 64.30950215 -73.32357025 61.10518837 C-73.32658994 59.57224041 -73.33459538 58.0392936 -73.34775543 56.50639915 C-73.36488838 54.35712405 -73.36291844 52.20864263 -73.35644531 50.05932617 C-73.36191376 48.22757088 -73.36191376 48.22757088 -73.36749268 46.35881042 C-72.68074025 40.08202899 -69.83923473 36.31454228 -65.09716797 32.49609375 C-61.11353391 29.65421837 -56.85377816 27.33986509 -52.5625 25 C-50.51991022 23.86754883 -48.47827531 22.733374 -46.4375 21.59765625 C-45.38433594 21.01258301 -44.33117187 20.42750977 -43.24609375 19.82470703 C-36.79964422 16.20100338 -30.43736608 12.43130093 -24.07055664 8.66992188 C-6.70437974 -1.53689414 -6.70437974 -1.53689414 0 0 Z " fill="#010101" transform="translate(254,158)"/>
<path d="M0 0 C3.9895715 1.87330841 7.43551679 4.42347489 11 7 C12.30469643 7.91850629 13.61077145 8.83505641 14.91796875 9.75 C17.81740145 11.78387517 20.70806636 13.82948247 23.59375 15.8828125 C27.76150441 18.841698 31.96837572 21.74004514 36.1875 24.625 C38.1467243 25.97087879 40.10493577 27.31821181 42.0625 28.66650391 C43.36604376 29.56367578 44.67075398 30.45915496 45.9765625 31.35302734 C47.8864114 32.66414622 49.7877799 33.98676153 51.6875 35.3125 C52.53380981 35.88895264 52.53380981 35.88895264 53.3972168 36.47705078 C57.96665343 39.69286177 62.49568248 43.31030657 63.5625 49 C62.72644071 53.45898285 60.80828083 56.67392739 57.125 59.375 C53.43788069 60.45944686 50.51209806 60.78524791 46.98974609 58.95605469 C44.6488902 57.43131083 42.38431237 55.83067796 40.125 54.1875 C38.42322458 52.98560983 36.72140091 51.78378797 35.01953125 50.58203125 C34.17342285 49.97697754 33.32731445 49.37192383 32.45556641 48.74853516 C28.9391263 46.24458367 25.37682557 43.81002107 21.8125 41.375 C20.51270227 40.4809317 19.21322238 39.58640115 17.9140625 38.69140625 C15.22451599 36.84039727 12.53140096 34.99472504 9.8359375 33.15234375 C6.49220435 30.86567939 3.15488403 28.57003577 -0.17529297 26.26367188 C-1.36055521 25.44283733 -2.54701348 24.62372616 -3.73486328 23.80664062 C-5.28805285 22.73458462 -6.83184268 21.64894714 -8.375 20.5625 C-9.22835937 19.96566406 -10.08171875 19.36882812 -10.9609375 18.75390625 C-14.02168085 16.12119789 -14.88945085 14.03916202 -15.3125 10.0625 C-14.95575962 6.56644429 -14.09609412 4.79479215 -12 2 C-7.86659161 -0.75560559 -4.85259639 -0.92465632 0 0 Z " fill="#FBFBFB" transform="translate(221,211)"/>
<path d="M0 0 C2.13720703 1.17993164 2.13720703 1.17993164 4.2578125 2.66015625 C5.04244873 3.20236816 5.82708496 3.74458008 6.63549805 4.30322266 C7.45703369 4.88378418 8.27856934 5.4643457 9.125 6.0625 C9.97811768 6.65595215 10.83123535 7.2494043 11.71020508 7.86083984 C16.90985315 11.48946728 22.05781735 15.18493397 27.16015625 18.94921875 C31.64316664 22.1866059 36.21451512 25.29489208 40.78393555 28.40869141 C45.90250857 31.90250857 45.90250857 31.90250857 47 33 C46.75 36.4375 46.75 36.4375 46 40 C42.5575913 42.29493913 41.43597061 42.20857428 37.40625 42.08984375 C36.2925 42.06986328 35.17875 42.04988281 34.03125 42.02929688 C31.70820597 41.96890801 29.38527588 41.9039316 27.0625 41.83398438 C20.42876567 41.72367572 14.75974696 42.241287 8.41992188 44.24829102 C5.96333797 45.01138846 3.52827833 45.53511028 1 46 C0.97421875 45.21238281 0.9484375 44.42476563 0.921875 43.61328125 C0.36608863 32.93965659 -2.12291544 23.74723267 -6.75 14.125 C-8.81305889 9.74339504 -9.90162667 6.80867558 -9 2 C-6.08732025 -1.45206489 -4.1313579 -1.1484544 0 0 Z " fill="#FBFBFB" transform="translate(213,239)"/>
<path d="M0 0 C2.2890625 1.0390625 2.2890625 1.0390625 4.625 2.625 C5.56601563 3.25792969 6.50703125 3.89085937 7.4765625 4.54296875 C8.65193567 5.36069565 9.82630074 6.17987231 11 7 C11.75249023 7.52029785 12.50498047 8.0405957 13.28027344 8.57666016 C18.44352859 12.14725435 23.58310459 15.74997073 28.70654297 19.37744141 C30.6769093 20.7714221 32.65205945 22.15821001 34.62890625 23.54296875 C35.59699219 24.23003906 36.56507813 24.91710937 37.5625 25.625 C38.36816406 26.19476563 39.17382812 26.76453125 40.00390625 27.3515625 C43.65891013 30.36998058 44.90619419 32.15574769 45.4375 36.9375 C45.28482035 41.02931474 44.01636157 43.15600195 41 46 C36.43635996 47.52121335 33.17402352 48.05805052 28.80078125 45.9296875 C25.79462726 44.05143116 22.89616011 42.04118272 20 40 C18.41068751 38.89897232 16.82079735 37.79877824 15.23046875 36.69921875 C10.90097172 33.69618679 6.59334862 30.66339397 2.29345703 27.61816406 C0.32721561 26.23086918 -1.64762265 24.85784375 -3.62890625 23.4921875 C-4.59699219 22.81414062 -5.56507813 22.13609375 -6.5625 21.4375 C-7.36816406 20.87933594 -8.17382812 20.32117188 -9.00390625 19.74609375 C-11.34092881 17.70177069 -12.63995043 15.78527724 -14 13 C-14 8.49084613 -13.4981922 6.58761132 -10.5625 3.125 C-6.81541334 0.01765984 -4.85394044 -0.34756611 0 0 Z " fill="#FBFBFB" transform="translate(245,194)"/>
<path d="M0 0 C5.47051506 4.68901291 8.35432105 8.89358106 8.9375 16.125 C8.77619414 22.24310069 5.84669651 27.18733405 2.625 32.25 C3.058125 32.73210937 3.49125 33.21421875 3.9375 33.7109375 C4.494375 34.34257812 5.05125 34.97421875 5.625 35.625 C6.4603125 36.56472656 6.4603125 36.56472656 7.3125 37.5234375 C8.625 39.25 8.625 39.25 8.625 41.25 C5.24622378 41.54016208 1.99402001 41.69669115 -1.375 41.25 C-1.99375 40.46625 -2.6125 39.6825 -3.25 38.875 C-5.92172725 35.57463104 -7.19717239 35.70504618 -11.3125 35.125 C-12.33214844 35.01929688 -13.35179687 34.91359375 -14.40234375 34.8046875 C-20.5227359 33.66264323 -23.80130129 30.17590904 -27.375 25.25 C-30.00962135 19.98075731 -29.63988405 14.87781746 -28.375 9.25 C-25.59758141 3.89354985 -22.09322754 0.57750647 -16.6875 -2.0625 C-10.71296315 -3.30249821 -5.43082141 -2.81598147 0 0 Z M-19.375 9.25 C-21.22362688 12.94725375 -20.85087094 17.21461442 -20.375 21.25 C-18.57853146 24.18423195 -17.4308929 25.72205355 -14.375 27.25 C-8.56154053 27.78365513 -8.56154053 27.78365513 -3.4375 25.375 C0.14249133 21.68652408 -0.04617565 18.69678947 -0.08203125 13.734375 C-0.48962127 10.27801166 -1.83776502 8.56336131 -4.375 6.25 C-10.09372108 3.39063946 -15.15270087 4.89975241 -19.375 9.25 Z " fill="#000000" transform="translate(393.375,329.75)"/>
<path d="M0 0 C8 0 8 0 10.19335938 1.92773438 C10.73798828 2.80751953 11.28261719 3.68730469 11.84375 4.59375 C12.44960937 5.54121094 13.05546875 6.48867188 13.6796875 7.46484375 C14.28039062 8.46644531 14.88109375 9.46804688 15.5 10.5 C16.44746094 12.00240234 16.44746094 12.00240234 17.4140625 13.53515625 C18.96817669 16.00761065 20.48752028 18.50185934 22 21 C22.33 14.07 22.66 7.14 23 0 C25.64 0 28.28 0 31 0 C31 11.88 31 23.76 31 36 C22 36 22 36 19.78491211 34.1640625 C19.28741455 33.32617188 18.78991699 32.48828125 18.27734375 31.625 C17.71982422 30.72265625 17.16230469 29.8203125 16.58789062 28.890625 C16.04326172 27.93671875 15.49863281 26.9828125 14.9375 26 C14.35806641 25.04609375 13.77863281 24.0921875 13.18164062 23.109375 C11.75848335 20.75704893 10.37525106 18.38065098 9 16 C8.67 22.6 8.34 29.2 8 36 C5.36 36 2.72 36 0 36 C0 24.12 0 12.24 0 0 Z " fill="#000000" transform="translate(216,328)"/>
<path d="M0 0 C5.1876082 4.44652131 7.33253518 7.97276101 8.4296875 14.6953125 C8.86867455 20.43726312 7.46799376 24.53816751 3.9375 29.0625 C-0.08495726 33.32844741 -4.51352407 35.34211024 -10.375 35.625 C-15.84673814 35.38157645 -19.94593907 33.45171032 -24.125 29.9375 C-28.29957954 24.95119666 -29.90937668 20.93550545 -29.66015625 14.48828125 C-28.87989244 8.36374478 -26.12697571 4.05158057 -21.375 0.25 C-14.41705907 -3.75702848 -7.08390962 -3.67313832 0 0 Z M-19.375 9.25 C-21.22666694 13.72627742 -21.8106624 17.01180161 -20.1875 21.625 C-17.53050954 25.7416079 -17.53050954 25.7416079 -13.2890625 27.68359375 C-9.21395707 27.69054785 -6.94133705 27.59216197 -3.375 25.4375 C-0.26388708 22.03472024 -0.04025256 18.84912212 -0.08203125 14.3203125 C-0.5577407 10.95863236 -2.25031249 8.81212317 -4.375 6.25 C-9.86637916 3.50431042 -15.56472159 4.6552525 -19.375 9.25 Z " fill="#000000" transform="translate(146.375,329.75)"/>
<path d="M0 0 C3.3 0 6.6 0 10 0 C13.1040178 7.62477768 15.97242686 15.31334237 18.75 23.0625 C19.16121094 24.20138672 19.57242187 25.34027344 19.99609375 26.51367188 C23 34.87171667 23 34.87171667 23 36 C20.03 36 17.06 36 14 36 C13.34 34.35 12.68 32.7 12 31 C5.07 30.505 5.07 30.505 -2 30 C-2.33 31.98 -2.66 33.96 -3 36 C-5.97 36 -8.94 36 -12 36 C-9.91241244 27.74816978 -7.2459577 19.79880349 -4.3125 11.8125 C-3.68891602 10.09836914 -3.68891602 10.09836914 -3.05273438 8.34960938 C-2.03907179 5.56495009 -1.02143976 2.78181383 0 0 Z M5 11 C4.3291288 12.6232687 3.66342971 14.24867578 3 15.875 C2.62875 16.77992188 2.2575 17.68484375 1.875 18.6171875 C0.88509774 20.88983858 0.88509774 20.88983858 1 23 C3.64 23 6.28 23 9 23 C8.71640113 21.5608866 8.42278601 20.12374482 8.125 18.6875 C7.88136719 17.48673828 7.88136719 17.48673828 7.6328125 16.26171875 C7.05521001 13.74698882 7.05521001 13.74698882 5 11 Z " fill="#000000" transform="translate(262,328)"/>
<path d="M0 0 C3.01125 -0.0825 6.0225 -0.165 9.125 -0.25 C10.06230957 -0.28641602 10.99961914 -0.32283203 11.96533203 -0.36035156 C17.45925519 -0.43290177 20.73124588 0.19668636 25 4 C27.51886383 7.60347375 27.19171808 10.60047172 26.609375 14.80859375 C25.65050227 18.2568476 23.8174758 19.90327382 21 22 C18.04005455 22.98252887 15.35509359 23.10816314 12.25 23.0625 C10.14625 23.0315625 10.14625 23.0315625 8 23 C8 27.29 8 31.58 8 36 C5.36 36 2.72 36 0 36 C0 24.12 0 12.24 0 0 Z M8 7 C8 9.97 8 12.94 8 16 C12.0100934 16.17864631 12.0100934 16.17864631 16 16 C18.34973818 14.10244856 18.34973818 14.10244856 18.125 10.875 C18.08375 9.92625 18.0425 8.9775 18 8 C15.71294169 6.85647084 14.40735238 6.89665561 11.875 6.9375 C9.956875 6.9684375 9.956875 6.9684375 8 7 Z " fill="#000000" transform="translate(89,328)"/>
<path d="M0 0 C6.93 0 13.86 0 21 0 C21 2.31 21 4.62 21 7 C16.71 7 12.42 7 8 7 C8 9.64 8 12.28 8 15 C11.96 15 15.92 15 20 15 C20 16.98 20 18.96 20 21 C16.04 21 12.08 21 8 21 C8 23.97 8 26.94 8 30 C12.29 30 16.58 30 21 30 C21 31.98 21 33.96 21 36 C14.07 36 7.14 36 0 36 C0 24.12 0 12.24 0 0 Z " fill="#000000" transform="translate(316,328)"/>
<path d="M0 0 C8.91 0 17.82 0 27 0 C27 2.31 27 4.62 27 7 C23.7 7 20.4 7 17 7 C17 16.57 17 26.14 17 36 C14.36 36 11.72 36 9 36 C9 26.43 9 16.86 9 7 C6.03 7 3.06 7 0 7 C0 4.69 0 2.38 0 0 Z " fill="#000000" transform="translate(286,328)"/>
<path d="M0 0 C2.64 0 5.28 0 8 0 C8 9.9 8 19.8 8 30 C11.96 30 15.92 30 20 30 C20 31.98 20 33.96 20 36 C13.4 36 6.8 36 0 36 C0 24.12 0 12.24 0 0 Z " fill="#000000" transform="translate(180,328)"/>
<path d="M0 0 C2.64 0 5.28 0 8 0 C8 9.9 8 19.8 8 30 C11.96 30 15.92 30 20 30 C20 31.98 20 33.96 20 36 C13.4 36 6.8 36 0 36 C0 24.12 0 12.24 0 0 Z " fill="#000000" transform="translate(158,328)"/>
<path d="M0 0 C2.64 0 5.28 0 8 0 C8 11.88 8 23.76 8 36 C5.36 36 2.72 36 0 36 C0 24.12 0 12.24 0 0 Z " fill="#000000" transform="translate(353,328)"/>
<path d="M0 0 C2.64 0 5.28 0 8 0 C8 11.88 8 23.76 8 36 C5.36 36 2.72 36 0 36 C0 24.12 0 12.24 0 0 Z " fill="#000000" transform="translate(203,328)"/>
<path d="M0 0 C3.27803392 8.59313178 5.48305523 16.48900202 5.4375 25.75 C5.43492187 26.5116748 5.43234375 27.27334961 5.4296875 28.05810547 C5.32843304 31.81886471 5.09067077 34.80941809 3 38 C-0.465 36.02 -0.465 36.02 -4 34 C-3.96519531 32.91203125 -3.93039062 31.8240625 -3.89453125 30.703125 C-3.71615428 22.51739652 -3.93560636 15.31402262 -6.44140625 7.41796875 C-7.04201962 4.81811085 -7.00959151 3.45501761 -6 1 C-4 0 -4 0 0 0 Z " fill="#F3F3F3" transform="translate(264,166)"/>
<path d="M0 0 C0 2.31 0 4.62 0 7 C-1.02738281 7.09796875 -2.05476563 7.1959375 -3.11328125 7.296875 C-12.61454427 8.28987019 -20.89604808 10.09510722 -29.59375 14.234375 C-30.3878125 14.48703125 -31.181875 14.7396875 -32 15 C-35.3125 13.25 -35.3125 13.25 -38 11 C-38 10.34 -38 9.68 -38 9 C-25.11390875 1.96438229 -14.85650732 -0.42514647 0 0 Z " fill="#F3F3F3" transform="translate(309,197)"/>
</svg>
