<?xml version="1.0" encoding="UTF-8"?>
<svg version="1.1" xmlns="http://www.w3.org/2000/svg" width="500" height="500">
<path d="M0 0 C1.1439281 -0.00260775 2.2878562 -0.00521549 3.46644878 -0.00790226 C4.73908486 -0.00567154 6.01172094 -0.00344082 7.32292175 -0.0011425 C8.67600706 -0.00229337 10.02909206 -0.00388066 11.3821764 -0.00586975 C15.11771105 -0.01006776 18.85322035 -0.00797027 22.58875513 -0.00488353 C26.61060927 -0.00263155 30.63245888 -0.00610802 34.65431213 -0.00886345 C42.53997844 -0.01332232 50.42563526 -0.01234416 58.31130195 -0.00945081 C64.71716372 -0.00719723 71.12302283 -0.00688405 77.52888489 -0.00797462 C78.43877916 -0.00812786 79.34867344 -0.00828109 80.28614026 -0.00843897 C82.134269 -0.00875868 83.98239774 -0.00908289 85.83052647 -0.00941156 C103.18183829 -0.01226669 120.53314484 -0.0089788 137.8844558 -0.00361119 C152.78964696 0.00085688 167.69483034 0.00008095 182.60002136 -0.00452995 C199.88702237 -0.00987513 217.17401875 -0.011992 234.46102047 -0.00891769 C236.30255063 -0.00859912 238.1440808 -0.00828475 239.98561096 -0.00797462 C240.89180343 -0.00782035 241.7979959 -0.00766607 242.73164874 -0.00750712 C249.1337071 -0.0066418 255.53576253 -0.00810518 261.93782043 -0.01045418 C269.73420112 -0.01325175 277.53057174 -0.01251484 285.32695127 -0.00717343 C289.30876168 -0.00453583 293.29055526 -0.00353234 297.27236557 -0.00682259 C300.91155486 -0.00978435 304.55071159 -0.00819477 308.18989789 -0.00284503 C310.14261431 -0.00118414 312.09533295 -0.00447948 314.04804707 -0.00790226 C315.76393921 -0.00399064 315.76393921 -0.00399064 317.51449585 0 C318.5099602 0.00016235 319.50542456 0.0003247 320.5310545 0.00049198 C322.75724792 0.12584114 322.75724792 0.12584114 323.75724792 1.12584114 C323.85552095 2.871164 323.88280397 4.62050586 323.88308907 6.36859322 C323.88700069 8.08448536 323.88700069 8.08448536 323.89099133 9.835042 C323.88764525 11.74399612 323.88764525 11.74399612 323.88423157 13.69151497 C323.88538244 15.04460028 323.88696973 16.39768528 323.88895881 17.75076962 C323.89315682 21.48630427 323.89105933 25.22181357 323.88797259 28.95734835 C323.88572062 32.97920248 323.88919709 37.0010521 323.89195251 41.02290535 C323.89641139 48.90857166 323.89543323 56.79422848 323.89253987 64.67989516 C323.8902863 71.08575694 323.88997312 77.49161605 323.89106369 83.8974781 C323.89121692 84.80737238 323.89137016 85.71726665 323.89152803 86.65473348 C323.89184774 88.50286222 323.89217195 90.35099095 323.89250062 92.19911969 C323.89535576 109.55043151 323.89206787 126.90173806 323.88670026 144.25304902 C323.88223219 159.15824018 323.88300811 174.06342356 323.88761902 188.96861458 C323.89296419 206.25561559 323.89508107 223.54261197 323.89200675 240.82961369 C323.89168819 242.67114385 323.89137382 244.51267401 323.89106369 246.35420418 C323.89090941 247.26039665 323.89075514 248.16658911 323.89059619 249.10024196 C323.88973086 255.50230031 323.89119425 261.90435575 323.89354324 268.30641365 C323.89634081 276.10279434 323.8956039 283.89916495 323.8902625 291.69554448 C323.88762489 295.67735489 323.88662141 299.65914848 323.88991165 303.64095879 C323.89287342 307.28014808 323.89128383 310.91930481 323.8859341 314.55849111 C323.88427321 316.51120752 323.88756854 318.46392616 323.89099133 320.41664028 C323.88838358 321.56056838 323.88577584 322.70449648 323.88308907 323.88308907 C323.88292671 324.87855342 323.88276436 325.87401777 323.88259709 326.89964771 C323.75724792 329.12584114 323.75724792 329.12584114 322.75724792 330.12584114 C321.01192506 330.22411417 319.2625832 330.25139718 317.51449585 330.25168228 C315.7986037 330.2555939 315.7986037 330.2555939 314.04804707 330.25958455 C312.77541099 330.25735382 311.50277491 330.2551231 310.1915741 330.25282478 C308.83848879 330.25397565 307.48540379 330.25556295 306.13231945 330.25755203 C302.3967848 330.26175004 298.6612755 330.25965255 294.92574072 330.25656581 C290.90388658 330.25431384 286.88203697 330.25779031 282.86018372 330.26054573 C274.97451741 330.2650046 267.08886059 330.26402644 259.2031939 330.26113309 C252.79733213 330.25887951 246.39147302 330.25856633 239.98561096 330.25965691 C239.07571669 330.25981014 238.16582241 330.25996337 237.22835559 330.26012125 C235.38022685 330.26044096 233.53209811 330.26076517 231.68396938 330.26109384 C214.33265756 330.26394897 196.98135101 330.26066109 179.63004005 330.25529347 C164.72484889 330.2508254 149.81966551 330.25160133 134.91447449 330.25621223 C117.62747348 330.26155741 100.3404771 330.26367428 83.05347538 330.26059997 C81.21194522 330.2602814 79.37041505 330.25996703 77.52888489 330.25965691 C76.62269242 330.25950263 75.71649995 330.25934836 74.78284711 330.2591894 C68.38078875 330.25832408 61.97873332 330.25978746 55.57667542 330.26213646 C47.78029473 330.26493403 39.98392411 330.26419712 32.18754458 330.25885572 C28.20573417 330.25621811 24.22394059 330.25521463 20.24213028 330.25850487 C16.60294099 330.26146663 12.96378426 330.25987705 9.32459795 330.25452732 C7.37188154 330.25286643 5.4191629 330.25616176 3.46644878 330.25958455 C2.32252069 330.2569768 1.17859259 330.25436905 0 330.25168228 C-0.99546435 330.25151993 -1.99092871 330.25135758 -3.01655865 330.2511903 C-5.24275208 330.12584114 -5.24275208 330.12584114 -6.24275208 329.12584114 C-6.3410251 327.38051828 -6.36830812 325.63117642 -6.36859322 323.88308907 C-6.37120096 322.73916097 -6.37380871 321.59523287 -6.37649548 320.41664028 C-6.37426476 319.1440042 -6.37203404 317.87136812 -6.36973572 316.56016731 C-6.37088659 315.207082 -6.37247388 313.853997 -6.37446296 312.50091267 C-6.37866097 308.76537802 -6.37656348 305.02986871 -6.37347674 301.29433393 C-6.37122477 297.2724798 -6.37470124 293.25063018 -6.37745667 289.22877693 C-6.38191554 281.34311062 -6.38093738 273.45745381 -6.37804402 265.57178712 C-6.37579045 259.16592534 -6.37547727 252.76006624 -6.37656784 246.35420418 C-6.37672107 245.4443099 -6.37687431 244.53441563 -6.37703218 243.5969488 C-6.37735189 241.74882007 -6.3776761 239.90069133 -6.37800477 238.05256259 C-6.38085991 220.70125077 -6.37757202 203.34994422 -6.37220441 185.99863327 C-6.36773634 171.0934421 -6.36851226 156.18825873 -6.37312317 141.2830677 C-6.37846834 123.9960667 -6.38058522 106.70907031 -6.37751091 89.4220686 C-6.37719234 87.58053843 -6.37687797 85.73900827 -6.37656784 83.8974781 C-6.37633643 82.5381894 -6.37633643 82.5381894 -6.37610034 81.15144032 C-6.37523501 74.74938197 -6.3766984 68.34732653 -6.37904739 61.94526863 C-6.38184496 54.14888794 -6.38110805 46.35251733 -6.37576665 38.5561378 C-6.37312904 34.57432739 -6.37212556 30.5925338 -6.3754158 26.6107235 C-6.37837757 22.9715342 -6.37678798 19.33237747 -6.37143825 15.69319117 C-6.36977736 13.74047476 -6.37307269 11.78775612 -6.37649548 9.835042 C-6.37388773 8.6911139 -6.37127999 7.5471858 -6.36859322 6.36859322 C-6.36843086 5.37312886 -6.36826851 4.37766451 -6.36810124 3.35203457 C-6.12781774 -0.91538551 -3.71462485 0.00060583 0 0 Z " fill="#FDFDFD" transform="translate(91.24275207519531,84.87415885925293)"/>
<path d="M0 0 C3.63 0 7.26 0 11 0 C11 11.55 11 23.1 11 35 C7.37 35 3.74 35 0 35 C0 38.63 0 42.26 0 46 C3.63 46 7.26 46 11 46 C11 49.63 11 53.26 11 57 C7.37 57 3.74 57 0 57 C0 60.63 0 64.26 0 68 C3.63 68 7.26 68 11 68 C11 83.18 11 98.36 11 114 C14.63 114 18.26 114 22 114 C22 121.26 22 128.52 22 136 C33.22 136 44.44 136 56 136 C56 139.96 56 143.92 56 148 C59.63 148 63.26 148 67 148 C67 155.26 67 162.52 67 170 C63.37 170 59.74 170 56 170 C56 177.59 56 185.18 56 193 C59.63 193 63.26 193 67 193 C66.9690625 190.3084375 66.9690625 190.3084375 66.9375 187.5625 C66.9161878 185.70833878 66.92773498 183.85287502 67 182 C68 181 68 181 70.50390625 180.90234375 C73.3359375 180.93489583 76.16796875 180.96744792 79 181 C79 184.96 79 188.92 79 193 C75.37 193 71.74 193 68 193 C68 196.63 68 200.26 68 204 C79.22 204 90.44 204 102 204 C102 207.63 102 211.26 102 215 C101 216 101 216 97.85717773 216.11352539 C96.46597303 216.11336633 95.07476239 216.10767506 93.68359375 216.09765625 C92.95253922 216.0962413 92.22148468 216.09482635 91.46827698 216.09336853 C89.12464368 216.08775408 86.78110461 216.07519922 84.4375 216.0625 C82.85221492 216.05748686 81.26692834 216.05292363 79.68164062 216.04882812 C75.7877239 216.03777997 71.89387795 216.02050572 68 216 C68 219.63 68 223.26 68 227 C71.63 227 75.26 227 79 227 C79 230.63 79 234.26 79 238 C86.26 238 93.52 238 101 238 C101 253.18 101 268.36 101 284 C74.93 284 48.86 284 22 284 C22 280.04 22 276.08 22 272 C10.78 272 -0.44 272 -12 272 C-12 268.37 -12 264.74 -12 261 C-19.26 261 -26.52 261 -34 261 C-34 264.63 -34 268.26 -34 272 C-37.96 272 -41.92 272 -46 272 C-46 275.96 -46 279.92 -46 284 C-49.63 284 -53.26 284 -57 284 C-57 276.41 -57 268.82 -57 261 C-53.04 261 -49.08 261 -45 261 C-45 257.37 -45 253.74 -45 250 C-41.37 250 -37.74 250 -34 250 C-34 246.04 -34 242.08 -34 238 C-37.63 238 -41.26 238 -45 238 C-45 230.74 -45 223.48 -45 216 C-41.7 216 -38.4 216 -35 216 C-35 219.63 -35 223.26 -35 227 C-31.04 227 -27.08 227 -23 227 C-23 223.04 -23 219.08 -23 215 C-26.63 215 -30.26 215 -34 215 C-34 211.37 -34 207.74 -34 204 C-45.22 204 -56.44 204 -68 204 C-68 211.59 -68 219.18 -68 227 C-71.96 227 -75.92 227 -80 227 C-80 238.22 -80 249.44 -80 261 C-83.63 261 -87.26 261 -91 261 C-91 245.82 -91 230.64 -91 215 C-87.37 215 -83.74 215 -80 215 C-80 211.37 -80 207.74 -80 204 C-83.63 204 -87.26 204 -91 204 C-91 196.74 -91 189.48 -91 182 C-94.63 182 -98.26 182 -102 182 C-102 185.63 -102 189.26 -102 193 C-120.81 193 -139.62 193 -159 193 C-159 189.04 -159 185.08 -159 181 C-147.78 181 -136.56 181 -125 181 C-125 173.74 -125 166.48 -125 159 C-117.41 159 -109.82 159 -102 159 C-102 155.37 -102 151.74 -102 148 C-109.59 148 -117.18 148 -125 148 C-125 144.04 -125 140.08 -125 136 C-113.78 136 -102.56 136 -91 136 C-91 132.37 -91 128.74 -91 125 C-102.22 125 -113.44 125 -125 125 C-125 117.74 -125 110.48 -125 103 C-136.22 103 -147.44 103 -159 103 C-159 106.63 -159 110.26 -159 114 C-162.63 114 -166.26 114 -170 114 C-170 110.37 -170 106.74 -170 103 C-173.63 103 -177.26 103 -181 103 C-181 99.04 -181 95.08 -181 91 C-177.37 91 -173.74 91 -170 91 C-170 94.63 -170 98.26 -170 102 C-166.37 102 -162.74 102 -159 102 C-159 98.37 -159 94.74 -159 91 C-140.19 91 -121.38 91 -102 91 C-102 94.63 -102 98.26 -102 102 C-94.74 102 -87.48 102 -80 102 C-80 105.96 -80 109.92 -80 114 C-76.04 114 -72.08 114 -68 114 C-68 106.41 -68 98.82 -68 91 C-75.59 91 -83.18 91 -91 91 C-91 68.56 -91 46.12 -91 23 C-87.37 23 -83.74 23 -80 23 C-80 41.81 -80 60.62 -80 80 C-76.04 80 -72.08 80 -68 80 C-68 61.19 -68 42.38 -68 23 C-71.63 23 -75.26 23 -79 23 C-79 19.37 -79 15.74 -79 12 C-75.37 12 -71.74 12 -68 12 C-68 8.37 -68 4.74 -68 1 C-53.15 1 -38.3 1 -23 1 C-23 4.63 -23 8.26 -23 12 C-34.22 12 -45.44 12 -57 12 C-57 19.26 -57 26.52 -57 34 C-53.37 34 -49.74 34 -46 34 C-46 37.96 -46 41.92 -46 46 C-49.63 46 -53.26 46 -57 46 C-57 60.85 -57 75.7 -57 91 C-53.37 91 -49.74 91 -46 91 C-46 83.41 -46 75.82 -46 68 C-42.04 68 -38.08 68 -34 68 C-34 75.59 -34 83.18 -34 91 C-30.37 91 -26.74 91 -23 91 C-23 83.41 -23 75.82 -23 68 C-19.37 68 -15.74 68 -12 68 C-12 64.37 -12 60.74 -12 57 C-15.63 57 -19.26 57 -23 57 C-23 53.37 -23 49.74 -23 46 C-26.63 46 -30.26 46 -34 46 C-34 42.04 -34 38.08 -34 34 C-30.37 34 -26.74 34 -23 34 C-23 30.37 -23 26.74 -23 23 C-19.37 23 -15.74 23 -12 23 C-12 19.37 -12 15.74 -12 12 C-8.04 12 -4.08 12 0 12 C0 8.04 0 4.08 0 0 Z " fill="#040404" transform="translate(290,108)"/>
<path d="M0 0 C3.63 0 7.26 0 11 0 C11 3.63 11 7.26 11 11 C14.63 11 18.26 11 22 11 C22 7.37 22 3.74 22 0 C40.81 0 59.62 0 79 0 C79 3.63 79 7.26 79 11 C86.26 11 93.52 11 101 11 C101 14.96 101 18.92 101 23 C104.96 23 108.92 23 113 23 C113 26.63 113 30.26 113 34 C116.63 34 120.26 34 124 34 C124 37.63 124 41.26 124 45 C120.37 45 116.74 45 113 45 C113 52.59 113 60.18 113 68 C105.41 68 97.82 68 90 68 C90 75.26 90 82.52 90 90 C97.59 90 105.18 90 113 90 C113 93.96 113 97.92 113 102 C116.63 102 120.26 102 124 102 C124 94.41 124 86.82 124 79 C127.63 79 131.26 79 135 79 C135 82.96 135 86.92 135 91 C142.59 91 150.18 91 158 91 C158 87.04 158 83.08 158 79 C161.63 79 165.26 79 169 79 C169 86.59 169 94.18 169 102 C165.37 102 161.74 102 158 102 C158 105.63 158 109.26 158 113 C161.63 113 165.26 113 169 113 C169 120.59 169 128.18 169 136 C165.37 136 161.74 136 158 136 C158 132.04 158 128.08 158 124 C154.37 124 150.74 124 147 124 C147 120.37 147 116.74 147 113 C135.78 113 124.56 113 113 113 C113 120.59 113 128.18 113 136 C109.04 136 105.08 136 101 136 C101 147.22 101 158.44 101 170 C97.37 170 93.74 170 90 170 C90 154.82 90 139.64 90 124 C93.63 124 97.26 124 101 124 C101 120.37 101 116.74 101 113 C97.37 113 93.74 113 90 113 C90 105.74 90 98.48 90 91 C86.37 91 82.74 91 79 91 C79 94.63 79 98.26 79 102 C60.19 102 41.38 102 22 102 C22 98.04 22 94.08 22 90 C33.22 90 44.44 90 56 90 C56 82.74 56 75.48 56 68 C63.59 68 71.18 68 79 68 C79 64.37 79 60.74 79 57 C71.41 57 63.82 57 56 57 C56 53.04 56 49.08 56 45 C67.22 45 78.44 45 90 45 C90 41.37 90 37.74 90 34 C78.78 34 67.56 34 56 34 C56 26.74 56 19.48 56 12 C44.78 12 33.56 12 22 12 C22 15.63 22 19.26 22 23 C18.37 23 14.74 23 11 23 C11 19.37 11 15.74 11 12 C7.37 12 3.74 12 0 12 C0 8.04 0 4.08 0 0 Z " fill="#040404" transform="translate(109,199)"/>
<path d="M0 0 C26.4 0 52.8 0 80 0 C80 26.4 80 52.8 80 80 C53.6 80 27.2 80 0 80 C0 53.6 0 27.2 0 0 Z " fill="#0F0F0F" transform="translate(108,108)"/>
<path d="M0 0 C26.4 0 52.8 0 80 0 C80 26.4 80 52.8 80 80 C66.985625 80.020625 53.97125 80.04125 40.5625 80.0625 C36.44724854 80.071604 32.33199707 80.08070801 28.09204102 80.09008789 C23.08190918 80.09460449 23.08190918 80.09460449 20.73936462 80.09544373 C19.09690582 80.09698325 17.45444817 80.10050835 15.81199646 80.10557556 C13.32980371 80.11285326 10.84768027 80.11390741 8.36547852 80.11352539 C7.26072473 80.11892255 7.26072473 80.11892255 6.13365269 80.12442875 C1.11402634 80.11402634 1.11402634 80.11402634 0 79 C-0.09500705 76.53551872 -0.12556678 74.0992917 -0.11352539 71.63452148 C-0.11364593 70.85133828 -0.11376646 70.06815508 -0.11389065 69.26123905 C-0.11314152 66.71449552 -0.10551331 64.16782427 -0.09765625 61.62109375 C-0.09618683 60.05342647 -0.09516612 58.48575869 -0.09460449 56.91809082 C-0.08935161 51.09121975 -0.07539052 45.26435918 -0.0625 39.4375 C-0.041875 26.423125 -0.02125 13.40875 0 0 Z " fill="#0F0F0F" transform="translate(108,312)"/>
<path d="M0 0 C19.5215625 -0.0309375 19.5215625 -0.0309375 39.4375 -0.0625 C43.55275146 -0.071604 47.66800293 -0.08070801 51.90795898 -0.09008789 C56.91809082 -0.09460449 56.91809082 -0.09460449 59.26063538 -0.09544373 C60.90309418 -0.09698325 62.54555183 -0.10050835 64.18800354 -0.10557556 C66.67019629 -0.11285326 69.15231973 -0.11390741 71.63452148 -0.11352539 C72.37102401 -0.1171235 73.10752653 -0.12072161 73.86634731 -0.12442875 C78.88597366 -0.11402634 78.88597366 -0.11402634 80 1 C80.09500705 3.46448128 80.12556678 5.9007083 80.11352539 8.36547852 C80.11364593 9.14866172 80.11376646 9.93184492 80.11389065 10.73876095 C80.11314152 13.28550448 80.10551331 15.83217573 80.09765625 18.37890625 C80.09618683 19.94657353 80.09516612 21.51424131 80.09460449 23.08190918 C80.08935161 28.90878025 80.07539052 34.73564082 80.0625 40.5625 C80.041875 53.576875 80.02125 66.59125 80 80 C53.6 80 27.2 80 0 80 C0 53.6 0 27.2 0 0 Z " fill="#0F0F0F" transform="translate(312,108)"/>
<path d="M0 0 C3.96 0 7.92 0 12 0 C12 7.59 12 15.18 12 23 C19.26 23 26.52 23 34 23 C34 30.26 34 37.52 34 45 C30.37 45 26.74 45 23 45 C23 48.96 23 52.92 23 57 C19.37 57 15.74 57 12 57 C12 53.04 12 49.08 12 45 C8.37 45 4.74 45 1 45 C1 52.59 1 60.18 1 68 C-2.96 68 -6.92 68 -11 68 C-11 60.41 -11 52.82 -11 45 C-14.63 45 -18.26 45 -22 45 C-22 48.96 -22 52.92 -22 57 C-29.59 57 -37.18 57 -45 57 C-45 53.04 -45 49.08 -45 45 C-48.63 45 -52.26 45 -56 45 C-56 52.59 -56 60.18 -56 68 C-59.63 68 -63.26 68 -67 68 C-67 64.04 -67 60.08 -67 56 C-74.59 56 -82.18 56 -90 56 C-90 48.74 -90 41.48 -90 34 C-82.41 34 -74.82 34 -67 34 C-67 26.41 -67 18.82 -67 11 C-63.37 11 -59.74 11 -56 11 C-56 14.96 -56 18.92 -56 23 C-52.37 23 -48.74 23 -45 23 C-45 26.63 -45 30.26 -45 34 C-41.37 34 -37.74 34 -34 34 C-34.020625 32.205625 -34.04125 30.41125 -34.0625 28.5625 C-34.0838122 26.70833878 -34.07226502 24.85287502 -34 23 C-33 22 -33 22 -29.85717773 21.88647461 C-28.46597303 21.88663367 -27.07476239 21.89232494 -25.68359375 21.90234375 C-24.58701195 21.90446617 -24.58701195 21.90446617 -23.46827698 21.90663147 C-21.12464368 21.91224592 -18.78110461 21.92480078 -16.4375 21.9375 C-14.85221492 21.94251314 -13.26692834 21.94707637 -11.68164062 21.95117188 C-7.78769457 21.96137079 -3.89395323 21.98094313 0 22 C0 14.74 0 7.48 0 0 Z " fill="#F6F6F6" transform="translate(289,233)"/>
<path d="M0 0 C18.48 0 36.96 0 56 0 C56 18.48 56 36.96 56 56 C37.52 56 19.04 56 0 56 C0 37.52 0 19.04 0 0 Z " fill="#FEFEFE" transform="translate(120,324)"/>
<path d="M0 0 C18.48 0 36.96 0 56 0 C56 18.48 56 36.96 56 56 C37.52 56 19.04 56 0 56 C0 37.52 0 19.04 0 0 Z " fill="#FEFEFE" transform="translate(324,120)"/>
<path d="M0 0 C18.48 0 36.96 0 56 0 C56 18.48 56 36.96 56 56 C37.52 56 19.04 56 0 56 C0 37.52 0 19.04 0 0 Z " fill="#FEFEFE" transform="translate(120,120)"/>
<path d="M0 0 C18.81 0 37.62 0 57 0 C57 3.63 57 7.26 57 11 C60.63 11 64.26 11 68 11 C68 14.96 68 18.92 68 23 C71.63 23 75.26 23 79 23 C79 34.22 79 45.44 79 57 C75.37 57 71.74 57 68 57 C68 60.63 68 64.26 68 68 C71.63 68 75.26 68 79 68 C79 75.26 79 82.52 79 90 C75.37 90 71.74 90 68 90 C68 86.37 68 82.74 68 79 C64.37 79 60.74 79 57 79 C57 71.74 57 64.48 57 57 C53.37 57 49.74 57 46 57 C46 53.04 46 49.08 46 45 C53.26 45 60.52 45 68 45 C68 41.37 68 37.74 68 34 C64.37 34 60.74 34 57 34 C57 26.74 57 19.48 57 12 C45.78 12 34.56 12 23 12 C23 15.63 23 19.26 23 23 C19.04 23 15.08 23 11 23 C11 19.37 11 15.74 11 12 C7.37 12 3.74 12 0 12 C0 8.04 0 4.08 0 0 Z " fill="#020202" transform="translate(312,199)"/>
<path d="M0 0 C3.3 0 6.6 0 10 0 C10 3.63 10 7.26 10 11 C13.96 11 17.92 11 22 11 C22 18.59 22 26.18 22 34 C33.22 34 44.44 34 56 34 C56 37.63 56 41.26 56 45 C59.63 45 63.26 45 67 45 C67 48.63 67 52.26 67 56 C55.78 56 44.56 56 33 56 C33 52.37 33 48.74 33 45 C25.74 45 18.48 45 11 45 C11 48.63 11 52.26 11 56 C7.04 56 3.08 56 -1 56 C-1 59.96 -1 63.92 -1 68 C-4.63 68 -8.26 68 -12 68 C-12 60.41 -12 52.82 -12 45 C-8.04 45 -4.08 45 0 45 C0 41.37 0 37.74 0 34 C3.63 34 7.26 34 11 34 C11 30.04 11 26.08 11 22 C7.37 22 3.74 22 0 22 C0 14.74 0 7.48 0 0 Z " fill="#020202" transform="translate(245,324)"/>
<path d="M0 0 C3.63 0 7.26 0 11 0 C11 3.96 11 7.92 11 12 C18.59 12 26.18 12 34 12 C34 8.04 34 4.08 34 0 C37.63 0 41.26 0 45 0 C45 7.59 45 15.18 45 23 C41.37 23 37.74 23 34 23 C34 26.63 34 30.26 34 34 C37.63 34 41.26 34 45 34 C45 41.59 45 49.18 45 57 C41.37 57 37.74 57 34 57 C34 53.04 34 49.08 34 45 C30.37 45 26.74 45 23 45 C23 41.37 23 37.74 23 34 C11.78 34 0.56 34 -11 34 C-11 30.37 -11 26.74 -11 23 C-7.37 23 -3.74 23 0 23 C0 15.41 0 7.82 0 0 Z " fill="#010101" transform="translate(233,278)"/>
<path d="M0 0 C3.96 0 7.92 0 12 0 C12 7.59 12 15.18 12 23 C19.26 23 26.52 23 34 23 C34 30.26 34 37.52 34 45 C30.37 45 26.74 45 23 45 C23 48.96 23 52.92 23 57 C19.37 57 15.74 57 12 57 C12 53.04 12 49.08 12 45 C8.37 45 4.74 45 1 45 C1 52.59 1 60.18 1 68 C-2.96 68 -6.92 68 -11 68 C-11 56.78 -11 45.56 -11 34 C-7.37 34 -3.74 34 0 34 C0 30.37 0 26.74 0 23 C-10.89 23 -21.78 23 -33 23 C-33 22.67 -33 22.34 -33 22 C-22.11 22 -11.22 22 0 22 C0 14.74 0 7.48 0 0 Z " fill="#7D7D7D" transform="translate(289,233)"/>
<path d="M0 0 C3.96 0 7.92 0 12 0 C12 3.63 12 7.26 12 11 C23.22 11 34.44 11 46 11 C46 26.18 46 41.36 46 57 C42.04 57 38.08 57 34 57 C34 68.22 34 79.44 34 91 C30.37 91 26.74 91 23 91 C23 75.82 23 60.64 23 45 C26.63 45 30.26 45 34 45 C34 41.37 34 37.74 34 34 C30.37 34 26.74 34 23 34 C23 26.74 23 19.48 23 12 C19.37 12 15.74 12 12 12 C12 15.63 12 19.26 12 23 C11.67 23 11.34 23 11 23 C11 19.37 11 15.74 11 12 C7.37 12 3.74 12 0 12 C0 8.04 0 4.08 0 0 Z " fill="#6F6F6F" transform="translate(176,278)"/>
<path d="M0 0 C3.63 0 7.26 0 11 0 C11 3.63 11 7.26 11 11 C18.59 11 26.18 11 34 11 C34 14.63 34 18.26 34 22 C41.26 22 48.52 22 56 22 C56 18.37 56 14.74 56 11 C59.96 11 63.92 11 68 11 C68 14.63 68 18.26 68 22 C71.63 22 75.26 22 79 22 C79 25.96 79 29.92 79 34 C71.41 34 63.82 34 56 34 C56 37.63 56 41.26 56 45 C52.37 45 48.74 45 45 45 C45 41.37 45 37.74 45 34 C41.37 34 37.74 34 34 34 C34 30.37 34 26.74 34 23 C22.78 23 11.56 23 0 23 C0 15.41 0 7.82 0 0 Z " fill="#FBFBFB" transform="translate(267,335)"/>
<path d="M0 0 C3.63 0 7.26 0 11 0 C11 11.55 11 23.1 11 35 C7.04 35 3.08 35 -1 35 C-1 38.3 -1 41.6 -1 45 C-4.63 45 -8.26 45 -12 45 C-12 48.96 -12 52.92 -12 57 C-15.63 57 -19.26 57 -23 57 C-23 53.37 -23 49.74 -23 46 C-26.63 46 -30.26 46 -34 46 C-34 42.04 -34 38.08 -34 34 C-30.37 34 -26.74 34 -23 34 C-23 30.37 -23 26.74 -23 23 C-19.37 23 -15.74 23 -12 23 C-12 19.37 -12 15.74 -12 12 C-8.04 12 -4.08 12 0 12 C0 8.04 0 4.08 0 0 Z " fill="#050505" transform="translate(290,108)"/>
<path d="M0 0 C11.22 0 22.44 0 34 0 C34 11.22 34 22.44 34 34 C22.78 34 11.56 34 0 34 C0 22.78 0 11.56 0 0 Z " fill="#020202" transform="translate(131,335)"/>
<path d="M0 0 C11.22 0 22.44 0 34 0 C34 11.22 34 22.44 34 34 C22.78 34 11.56 34 0 34 C0 22.78 0 11.56 0 0 Z " fill="#FEFEFE" transform="translate(301,301)"/>
<path d="M0 0 C11.22 0 22.44 0 34 0 C34 11.22 34 22.44 34 34 C22.78 34 11.56 34 0 34 C0 22.78 0 11.56 0 0 Z " fill="#020202" transform="translate(335,131)"/>
<path d="M0 0 C11.22 0 22.44 0 34 0 C34 11.22 34 22.44 34 34 C22.78 34 11.56 34 0 34 C0 22.78 0 11.56 0 0 Z " fill="#020202" transform="translate(131,131)"/>
<path d="M0 0 C2.83203125 0.03255208 5.6640625 0.06510417 8.49609375 0.09765625 C8.49609375 4.05765625 8.49609375 8.01765625 8.49609375 12.09765625 C4.86609375 12.09765625 1.23609375 12.09765625 -2.50390625 12.09765625 C-2.50390625 15.72765625 -2.50390625 19.35765625 -2.50390625 23.09765625 C8.71609375 23.09765625 19.93609375 23.09765625 31.49609375 23.09765625 C31.49609375 26.72765625 31.49609375 30.35765625 31.49609375 34.09765625 C30.49609375 35.09765625 30.49609375 35.09765625 27.35327148 35.21118164 C25.96206678 35.21102258 24.57085614 35.20533131 23.1796875 35.1953125 C22.44863297 35.19389755 21.71757843 35.1924826 20.96437073 35.19102478 C18.62073743 35.18541033 16.27719836 35.17285547 13.93359375 35.16015625 C12.34830867 35.15514311 10.76302209 35.15057988 9.17773438 35.14648438 C5.28378832 35.13628546 1.39004698 35.11671312 -2.50390625 35.09765625 C-2.50390625 42.35765625 -2.50390625 49.61765625 -2.50390625 57.09765625 C-6.46390625 57.09765625 -10.42390625 57.09765625 -14.50390625 57.09765625 C-14.50390625 53.46765625 -14.50390625 49.83765625 -14.50390625 46.09765625 C-10.87390625 46.09765625 -7.24390625 46.09765625 -3.50390625 46.09765625 C-3.50390625 42.46765625 -3.50390625 38.83765625 -3.50390625 35.09765625 C-7.13390625 35.09765625 -10.76390625 35.09765625 -14.50390625 35.09765625 C-14.50390625 31.13765625 -14.50390625 27.17765625 -14.50390625 23.09765625 C-10.87390625 23.09765625 -7.24390625 23.09765625 -3.50390625 23.09765625 C-3.51550781 21.52113281 -3.52710938 19.94460938 -3.5390625 18.3203125 C-3.54843868 16.26692826 -3.55753907 14.21354275 -3.56640625 12.16015625 C-3.57478516 11.11923828 -3.58316406 10.07832031 -3.59179688 9.00585938 C-3.59501953 8.01650391 -3.59824219 7.02714844 -3.6015625 6.0078125 C-3.60679932 5.09136963 -3.61203613 4.17492676 -3.61743164 3.23071289 C-3.45168019 0.11636796 -3.1328574 0.12218633 0 0 Z " fill="#717171" transform="translate(360.50390625,288.90234375)"/>
<path d="M0 0 C18.81 0 37.62 0 57 0 C57 3.63 57 7.26 57 11 C60.63 11 64.26 11 68 11 C68 11.33 68 11.66 68 12 C53.15 12 38.3 12 23 12 C23 15.63 23 19.26 23 23 C19.04 23 15.08 23 11 23 C11 19.37 11 15.74 11 12 C7.37 12 3.74 12 0 12 C0 8.04 0 4.08 0 0 Z " fill="#0D0D0D" transform="translate(312,199)"/>
<path d="M0 0 C7.59 0 15.18 0 23 0 C23 3.63 23 7.26 23 11 C26.63 11 30.26 11 34 11 C34 18.59 34 26.18 34 34 C30.37 34 26.74 34 23 34 C23 30.04 23 26.08 23 22 C15.41 22 7.82 22 0 22 C0 14.74 0 7.48 0 0 Z " fill="#FCFCFC" transform="translate(199,267)"/>
<path d="M0 0 C3.3 0 6.6 0 10 0 C10 7.26 10 14.52 10 22 C6.37 22 2.74 22 -1 22 C-1 33.22 -1 44.44 -1 56 C-4.63 56 -8.26 56 -12 56 C-12 40.82 -12 25.64 -12 10 C-8.04 10 -4.08 10 0 10 C0 6.7 0 3.4 0 0 Z " fill="#030303" transform="translate(211,313)"/>
<path d="M0 0 C7.59 0 15.18 0 23 0 C23 3.96 23 7.92 23 12 C19.04 12 15.08 12 11 12 C11 8.37 11 4.74 11 1 C7.7 1 4.4 1 1 1 C1 8.26 1 15.52 1 23 C4.63 23 8.26 23 12 23 C12 26.96 12 30.92 12 35 C8.37 35 4.74 35 1 35 C1 38.63 1 42.26 1 46 C0.67 46 0.34 46 0 46 C0 42.37 0 38.74 0 35 C-7.26 35 -14.52 35 -22 35 C-22 31.04 -22 27.08 -22 23 C-14.74 23 -7.48 23 0 23 C0 15.41 0 7.82 0 0 Z " fill="#7C7C7C" transform="translate(244,323)"/>
<path d="M0 0 C3.63 0 7.26 0 11 0 C11 3.63 11 7.26 11 11 C18.59 11 26.18 11 34 11 C34 14.63 34 18.26 34 22 C41.26 22 48.52 22 56 22 C56 18.37 56 14.74 56 11 C59.96 11 63.92 11 68 11 C68 14.63 68 18.26 68 22 C71.63 22 75.26 22 79 22 C79 22.33 79 22.66 79 23 C75.04 23 71.08 23 67 23 C67 19.37 67 15.74 67 12 C63.7 12 60.4 12 57 12 C57 15.63 57 19.26 57 23 C38.19 23 19.38 23 0 23 C0 15.41 0 7.82 0 0 Z " fill="#E9E9E9" transform="translate(267,335)"/>
<path d="M0 0 C0.33 0 0.66 0 1 0 C1 3.63 1 7.26 1 11 C4.63 11 8.26 11 12 11 C12 14.63 12 18.26 12 22 C8.37 22 4.74 22 1 22 C1 25.63 1 29.26 1 33 C4.63 33 8.26 33 12 33 C12 33.33 12 33.66 12 34 C8.37 34 4.74 34 1 34 C1 37.63 1 41.26 1 45 C-2.96 45 -6.92 45 -11 45 C-11 41.37 -11 37.74 -11 34 C-14.63 34 -18.26 34 -22 34 C-22 33.67 -22 33.34 -22 33 C-18.37 33 -14.74 33 -11 33 C-11 25.41 -11 17.82 -11 10 C-7.37 10 -3.74 10 0 10 C0 6.7 0 3.4 0 0 Z " fill="#7E7E7E" transform="translate(289,143)"/>
<path d="M0 0 C3.3 0 6.6 0 10 0 C10 18.15 10 36.3 10 55 C6.7 55 3.4 55 0 55 C0 36.85 0 18.7 0 0 Z " fill="#FFFFFF" transform="translate(211,132)"/>
<path d="M0 0 C7.26 0 14.52 0 22 0 C22 7.59 22 15.18 22 23 C14.74 23 7.48 23 0 23 C0 15.41 0 7.82 0 0 Z " fill="#0F0F0F" transform="translate(256,369)"/>
<path d="M0 0 C3.63 0 7.26 0 11 0 C11 14.85 11 29.7 11 45 C7.37 45 3.74 45 0 45 C0 30.15 0 15.3 0 0 Z " fill="#030303" transform="translate(109,256)"/>
<path d="M0 0 C10.89 0 21.78 0 33 0 C33 3.63 33 7.26 33 11 C29.37 11 25.74 11 22 11 C22 14.63 22 18.26 22 22 C18.37 22 14.74 22 11 22 C11 18.37 11 14.74 11 11 C7.37 11 3.74 11 0 11 C0 7.37 0 3.74 0 0 Z " fill="#FFFFFF" transform="translate(256,256)"/>
<path d="M0 0 C10.89 0 21.78 0 33 0 C33 3.63 33 7.26 33 11 C29.37 11 25.74 11 22 11 C22 14.63 22 18.26 22 22 C18.37 22 14.74 22 11 22 C11 18.37 11 14.74 11 11 C7.37 11 3.74 11 0 11 C0 7.37 0 3.74 0 0 Z " fill="#FFFFFF" transform="translate(222,222)"/>
<path d="M0 0 C3.96 0 7.92 0 12 0 C12 3.63 12 7.26 12 11 C15.63 11 19.26 11 23 11 C23 14.96 23 18.92 23 23 C15.41 23 7.82 23 0 23 C0 15.41 0 7.82 0 0 Z " fill="#F0F0F0" transform="translate(267,199)"/>
<path d="M0 0 C11.22 0 22.44 0 34 0 C34 3.63 34 7.26 34 11 C22.78 11 11.56 11 0 11 C0 7.37 0 3.74 0 0 Z " fill="#FBFBFB" transform="translate(154,256)"/>
<path d="M0 0 C7.26 0 14.52 0 22 0 C22 7.59 22 15.18 22 23 C18.37 23 14.74 23 11 23 C11 19.04 11 15.08 11 11 C7.37 11 3.74 11 0 11 C0 7.37 0 3.74 0 0 Z " fill="#010101" transform="translate(109,233)"/>
<path d="M0 0 C3.63 0 7.26 0 11 0 C11 7.26 11 14.52 11 22 C3.74 22 -3.52 22 -11 22 C-11 18.37 -11 14.74 -11 11 C-7.37 11 -3.74 11 0 11 C0 7.37 0 3.74 0 0 Z " fill="#FFFFFF" transform="translate(369,358)"/>
<path d="M0 0 C7.26 0 14.52 0 22 0 C22 3.63 22 7.26 22 11 C18.37 11 14.74 11 11 11 C11 14.63 11 18.26 11 22 C7.37 22 3.74 22 0 22 C0 14.74 0 7.48 0 0 Z " fill="#000000" transform="translate(199,290)"/>
<path d="M0 0 C7.26 0 14.52 0 22 0 C22 7.26 22 14.52 22 22 C18.37 22 14.74 22 11 22 C11 18.37 11 14.74 11 11 C7.37 11 3.74 11 0 11 C0 7.37 0 3.74 0 0 Z " fill="#FDFDFD" transform="translate(301,256)"/>
<path d="M0 0 C10.89 0 21.78 0 33 0 C33 3.3 33 6.6 33 10 C22.11 10 11.22 10 0 10 C0 6.7 0 3.4 0 0 Z " fill="#000000" transform="translate(358,313)"/>
<path d="M0 0 C3.63 0 7.26 0 11 0 C11 3.63 11 7.26 11 11 C25.85 11 40.7 11 56 11 C56 11.33 56 11.66 56 12 C44.78 12 33.56 12 22 12 C22 15.63 22 19.26 22 23 C18.37 23 14.74 23 11 23 C11 19.37 11 15.74 11 12 C7.37 12 3.74 12 0 12 C0 8.04 0 4.08 0 0 Z " fill="#2C2C2C" transform="translate(109,199)"/>
<path d="M0 0 C3.96 0 7.92 0 12 0 C12 7.59 12 15.18 12 23 C8.04 23 4.08 23 0 23 C0 15.41 0 7.82 0 0 Z " fill="#EEEEEE" transform="translate(278,312)"/>
<path d="M0 0 C3.63 0 7.26 0 11 0 C11 7.59 11 15.18 11 23 C7.37 23 3.74 23 0 23 C0 15.41 0 7.82 0 0 Z " fill="#FAFAFA" transform="translate(290,233)"/>
<path d="M0 0 C7.26 0 14.52 0 22 0 C22 3.63 22 7.26 22 11 C14.74 11 7.48 11 0 11 C0 7.37 0 3.74 0 0 Z " fill="#FFFFFF" transform="translate(256,369)"/>
<path d="M0 0 C7.26 0 14.52 0 22 0 C22 3.63 22 7.26 22 11 C14.74 11 7.48 11 0 11 C0 7.37 0 3.74 0 0 Z " fill="#050505" transform="translate(222,346)"/>
<path d="M0 0 C7.26 0 14.52 0 22 0 C22 3.63 22 7.26 22 11 C14.74 11 7.48 11 0 11 C0 7.37 0 3.74 0 0 Z " fill="#FFFFFF" transform="translate(256,233)"/>
<path d="M0 0 C3.3 0 6.6 0 10 0 C10 7.26 10 14.52 10 22 C6.7 22 3.4 22 0 22 C0 14.74 0 7.48 0 0 Z " fill="#FFFFFF" transform="translate(279,279)"/>
<path d="M0 0 C3.96 0 7.92 0 12 0 C12 3.96 12 7.92 12 12 C8.04 12 4.08 12 0 12 C0 8.04 0 4.08 0 0 Z " fill="#1D1D1D" transform="translate(312,312)"/>
<path d="M0 0 C3.63 0 7.26 0 11 0 C11 3.96 11 7.92 11 12 C7.37 12 3.74 12 0 12 C0 8.04 0 4.08 0 0 Z " fill="#111111" transform="translate(199,380)"/>
<path d="M0 0 C3.63 0 7.26 0 11 0 C11 3.96 11 7.92 11 12 C7.37 12 3.74 12 0 12 C0 8.04 0 4.08 0 0 Z " fill="#0D0D0D" transform="translate(358,289)"/>
<path d="M0 0 C3.63 0 7.26 0 11 0 C11 3.96 11 7.92 11 12 C7.37 12 3.74 12 0 12 C0 8.04 0 4.08 0 0 Z " fill="#EFEFEF" transform="translate(301,278)"/>
<path d="M0 0 C3.63 0 7.26 0 11 0 C11 3.96 11 7.92 11 12 C7.37 12 3.74 12 0 12 C0 8.04 0 4.08 0 0 Z " fill="#F3F3F3" transform="translate(199,244)"/>
<path d="M0 0 C3.63 0 7.26 0 11 0 C11 3.63 11 7.26 11 11 C7.37 11 3.74 11 0 11 C0 7.37 0 3.74 0 0 Z " fill="#FAFAFA" transform="translate(346,335)"/>
<path d="M0 0 C3.63 0 7.26 0 11 0 C11 3.63 11 7.26 11 11 C7.37 11 3.74 11 0 11 C0 7.37 0 3.74 0 0 Z " fill="#FFFFFF" transform="translate(256,324)"/>
<path d="M0 0 C3.63 0 7.26 0 11 0 C11 3.63 11 7.26 11 11 C7.37 11 3.74 11 0 11 C0 7.37 0 3.74 0 0 Z " fill="#F4F4F4" transform="translate(346,312)"/>
<path d="M0 0 C3.63 0 7.26 0 11 0 C11 3.63 11 7.26 11 11 C7.37 11 3.74 11 0 11 C0 7.37 0 3.74 0 0 Z " fill="#FFFFFF" transform="translate(267,301)"/>
<path d="M0 0 C3.63 0 7.26 0 11 0 C11 3.63 11 7.26 11 11 C7.37 11 3.74 11 0 11 C0 7.37 0 3.74 0 0 Z " fill="#F3F3F3" transform="translate(177,278)"/>
<path d="M0 0 C3.63 0 7.26 0 11 0 C11 3.63 11 7.26 11 11 C7.37 11 3.74 11 0 11 C0 7.37 0 3.74 0 0 Z " fill="#000000" transform="translate(301,267)"/>
<path d="M0 0 C3.63 0 7.26 0 11 0 C11 3.63 11 7.26 11 11 C7.37 11 3.74 11 0 11 C0 7.37 0 3.74 0 0 Z " fill="#FDFDFD" transform="translate(290,267)"/>
<path d="M0 0 C3.63 0 7.26 0 11 0 C11 3.63 11 7.26 11 11 C7.37 11 3.74 11 0 11 C0 7.37 0 3.74 0 0 Z " fill="#060606" transform="translate(278,267)"/>
<path d="M0 0 C3.63 0 7.26 0 11 0 C11 3.63 11 7.26 11 11 C7.37 11 3.74 11 0 11 C0 7.37 0 3.74 0 0 Z " fill="#000000" transform="translate(256,267)"/>
<path d="M0 0 C3.63 0 7.26 0 11 0 C11 3.63 11 7.26 11 11 C7.37 11 3.74 11 0 11 C0 7.37 0 3.74 0 0 Z " fill="#000000" transform="translate(222,267)"/>
<path d="M0 0 C3.63 0 7.26 0 11 0 C11 3.63 11 7.26 11 11 C7.37 11 3.74 11 0 11 C0 7.37 0 3.74 0 0 Z " fill="#030303" transform="translate(131,267)"/>
<path d="M0 0 C3.63 0 7.26 0 11 0 C11 3.63 11 7.26 11 11 C7.37 11 3.74 11 0 11 C0 7.37 0 3.74 0 0 Z " fill="#FFFFFF" transform="translate(335,256)"/>
<path d="M0 0 C3.63 0 7.26 0 11 0 C11 3.63 11 7.26 11 11 C7.37 11 3.74 11 0 11 C0 7.37 0 3.74 0 0 Z " fill="#010101" transform="translate(290,256)"/>
<path d="M0 0 C3.63 0 7.26 0 11 0 C11 3.63 11 7.26 11 11 C7.37 11 3.74 11 0 11 C0 7.37 0 3.74 0 0 Z " fill="#000000" transform="translate(154,256)"/>
<path d="M0 0 C3.63 0 7.26 0 11 0 C11 3.63 11 7.26 11 11 C7.37 11 3.74 11 0 11 C0 7.37 0 3.74 0 0 Z " fill="#040404" transform="translate(346,222)"/>
<path d="M0 0 C3.63 0 7.26 0 11 0 C11 3.63 11 7.26 11 11 C7.37 11 3.74 11 0 11 C0 7.37 0 3.74 0 0 Z " fill="#F3F3F3" transform="translate(177,211)"/>
<path d="M0 0 C3.63 0 7.26 0 11 0 C11 3.63 11 7.26 11 11 C7.37 11 3.74 11 0 11 C0 7.37 0 3.74 0 0 Z " fill="#040404" transform="translate(109,199)"/>
<path d="M0 0 C3.63 0 7.26 0 11 0 C11 3.63 11 7.26 11 11 C7.37 11 3.74 11 0 11 C0 7.37 0 3.74 0 0 Z " fill="#010101" transform="translate(290,154)"/>
<path d="M0 0 C3.63 0 7.26 0 11 0 C11 3.63 11 7.26 11 11 C7.37 11 3.74 11 0 11 C0 7.37 0 3.74 0 0 Z " fill="#F8F8F8" transform="translate(278,154)"/>
<path d="M0 0 C3.3 0 6.6 0 10 0 C10 3.63 10 7.26 10 11 C6.7 11 3.4 11 0 11 C0 7.37 0 3.74 0 0 Z " fill="#FFFFFF" transform="translate(211,301)"/>
<path d="M0 0 C3.3 0 6.6 0 10 0 C10 3.63 10 7.26 10 11 C6.7 11 3.4 11 0 11 C0 7.37 0 3.74 0 0 Z " fill="#000000" transform="translate(279,165)"/>
<path d="M0 0 C3.3 0 6.6 0 10 0 C10 3.3 10 6.6 10 10 C6.7 10 3.4 10 0 10 C0 6.7 0 3.4 0 0 Z " fill="#FFFFFF" transform="translate(245,347)"/>
<path d="M0 0 C3.3 0 6.6 0 10 0 C10 3.3 10 6.6 10 10 C6.7 10 3.4 10 0 10 C0 6.7 0 3.4 0 0 Z " fill="#FFFFFF" transform="translate(279,177)"/>
</svg>
